<svg id="Capa_1" data-name="Capa 1" xmlns="http://www.w3.org/2000/svg" viewBox="0 0 32 32"><defs><style>.cls-1{fill:#080c15;}.cls-2{fill:#ab0420;}</style></defs><title>noradriana-web</title><path class="cls-1" d="M16,.5A15.5,15.5,0,1,0,31.5,16,15.5,15.5,0,0,0,16,.5Zm6.64,23.11a.25.25,0,0,1-.25.25H18.13a.25.25,0,0,1-.25-.25c0-.11,0-7.25,0-7.25a1.46,1.46,0,0,0-2.92,0v7.25a.25.25,0,0,1-.25.25H10.46a.25.25,0,0,1-.25-.25V13.55A.25.25,0,0,0,10,13.3H8.54A.25.25,0,0,1,8.29,13c0-.11,0-.71,0-.89a.25.25,0,0,1,.17-.24h0l5-1.18h.06a.25.25,0,0,1,.25.25v1.09h0a.13.13,0,0,0,.13.13.13.13,0,0,0,.09,0,5,5,0,0,1,8.61,3.55S22.64,23.61,22.64,23.61Z"/><path class="cls-2" d="M18.83,5.54a1.18,1.18,0,0,0-1.39-.29h0A6.19,6.19,0,0,0,15,8.58h0a.3.3,0,0,0,.35.37A6.21,6.21,0,0,0,18.9,7,1.18,1.18,0,0,0,18.83,5.54Z"/></svg>