<svg id="Capa_1" data-name="Capa 1" xmlns="http://www.w3.org/2000/svg" viewBox="0 0 290 50"><defs><style>.cls-1{fill:#ab0420;}.cls-2{fill:#fff;}</style></defs><title>noradriana-web</title><path class="cls-1" d="M196.55,12.89a2.76,2.76,0,0,1-.82-2,2.84,2.84,0,0,1,.82-2.06,2.72,2.72,0,0,1,2-.85,2.89,2.89,0,0,1,2.9,2.9,2.72,2.72,0,0,1-.85,2,2.84,2.84,0,0,1-2.06.82A2.76,2.76,0,0,1,196.55,12.89Z"/><path class="cls-2" d="M93,17.63A8.94,8.94,0,0,0,86,20.51a11.25,11.25,0,0,0-2.62,7.56c-.21,0-.33.13-.36.26q0,5.13-1.31,7.28t-3,2.15a2.85,2.85,0,0,1-2.59-1.4,8,8,0,0,1-.87-4.16V25.33a8,8,0,0,0-1.86-5.71,6.54,6.54,0,0,0-5-2A6.85,6.85,0,0,0,62,21.26q0-3.63-2.52-3.63a2.13,2.13,0,0,0-1.84.68V36.7a3,3,0,0,0,.73,2.2,2.57,2.57,0,0,0,1.94.75A1.94,1.94,0,0,0,62,39V30.7q0-6.15,1.65-8.76a4.86,4.86,0,0,1,4.21-2.61q2.9,0,2.9,5.76v5.66a10.48,10.48,0,0,0,1.81,6.58,6.21,6.21,0,0,0,5.2,2.32,5.94,5.94,0,0,0,5.15-2.47,9.19,9.19,0,0,0,1.43-3.43,9.29,9.29,0,0,0,1.91,3,9.45,9.45,0,0,0,7.09,2.93,8.2,8.2,0,0,0,6.8-3.24,12.82,12.82,0,0,0,2.54-8.15A10.82,10.82,0,0,0,100,20.49,9.21,9.21,0,0,0,93,17.63Zm3.29,19.14a4.15,4.15,0,0,1-3,1,4.31,4.31,0,0,1-4-2.13Q88,33.51,88,28.57q0-1.89,0-2.71A13.61,13.61,0,0,0,91.9,30.7a13.43,13.43,0,0,0,5.78,2.85A5.71,5.71,0,0,1,96.25,36.77ZM98,31.71A11.48,11.48,0,0,1,92.21,28,9,9,0,0,1,89.79,22a2.13,2.13,0,0,1,.94-1.86A3.85,3.85,0,0,1,93,19.52q3,0,4,2t1.06,7Q98.07,29.88,98,31.71Z"/><path class="cls-2" d="M117.08,18.26q-4.26,0-6.68,6V20.58a3,3,0,0,0-.73-2.2,2.57,2.57,0,0,0-1.94-.75,1.94,1.94,0,0,0-1.69.68V36.7a3,3,0,0,0,.73,2.2,2.57,2.57,0,0,0,1.94.75A1.94,1.94,0,0,0,110.4,39V31.28a18.13,18.13,0,0,1,1.81-7q1.81-4.14,4.09-4.14a2.79,2.79,0,0,1,2.23,1.11,3.79,3.79,0,0,1,.92,2.47,5.83,5.83,0,0,1-.29,2.08,1.87,1.87,0,0,0,1.65.58,2.06,2.06,0,0,0,1.4-.73,2.62,2.62,0,0,0,.73-1.94,5.69,5.69,0,0,0-1.4-3.85A5.59,5.59,0,0,0,117.08,18.26Z"/><path class="cls-2" d="M188.46,18.26q-4.26,0-6.68,6V20.58a3,3,0,0,0-.73-2.2,2.57,2.57,0,0,0-1.94-.75,1.94,1.94,0,0,0-1.69.68v9.92a.24.24,0,0,0,0,.1q0,.53,0,1.45,0,4.16-1.43,6.07a3.89,3.89,0,0,1-3,1.91,2.88,2.88,0,0,1-2.49-1.4,7.5,7.5,0,0,1-.94-4.16V17Q175,11.63,175,6.45a8,8,0,0,0-1-4.4A3.23,3.23,0,0,0,171.09.5a4.6,4.6,0,0,0-4.62,2.78q-1.23,2.78-1.23,8.88v6.58a7.85,7.85,0,0,0-4.45-1.11,9.65,9.65,0,0,0-7,2.54q-2.61,2.52-2.63,8a.25.25,0,0,0-.1.15q0,9.44-4.55,9.44a2.67,2.67,0,0,1-2.37-1.4,8,8,0,0,1-.87-4.16V18.31a2.8,2.8,0,0,0-2.06-.68,2.09,2.09,0,0,0-2,1.4q-1.4-1.4-4.74-1.4a9.41,9.41,0,0,0-7,2.66q-2.64,2.66-2.64,8.28,0,11.08,8.47,11.08a6,6,0,0,0,3.63-1.16,7.9,7.9,0,0,0,2.52-3.15q1.6,4.31,6.49,4.31a5.75,5.75,0,0,0,5-2.47,8.74,8.74,0,0,0,1.22-2.6q1.89,5,7.51,5a5.71,5.71,0,0,0,3.58-1.23,8.43,8.43,0,0,0,2.52-3.27q1.6,4.55,6.77,4.55a5.53,5.53,0,0,0,4.67-2.52c.1-.14.17-.31.27-.45v0a3,3,0,0,0,.73,2.2,2.57,2.57,0,0,0,1.94.75,1.94,1.94,0,0,0,1.69-.68V31.28a18.13,18.13,0,0,1,1.81-7q1.81-4.14,4.09-4.14a2.79,2.79,0,0,1,2.23,1.11,3.79,3.79,0,0,1,.92,2.47,5.83,5.83,0,0,1-.29,2.08,1.87,1.87,0,0,0,1.65.58,2.06,2.06,0,0,0,1.4-.73,2.62,2.62,0,0,0,.73-1.94,5.69,5.69,0,0,0-1.4-3.85A5.59,5.59,0,0,0,188.46,18.26ZM169.86,4.64q.27-2.25,1.28-2.25,1.74,0,1.74,4t-3.29,8.28Q169.59,6.89,169.86,4.64Zm-31,26.59a6.59,6.59,0,0,1-1.72,4.72A4.7,4.7,0,0,1,134,37.76a4.27,4.27,0,0,1-2.32-.56,5,5,0,0,1-1.55-2.69,20.49,20.49,0,0,1-.68-6q0-5.81,1.6-7.55a3.75,3.75,0,0,1,1.65-1.21,7.64,7.64,0,0,1,2.35-.29,3.45,3.45,0,0,1,2.66,1.4,5.51,5.51,0,0,1,1.19,3.68Zm26.28-.48a7.6,7.6,0,0,1-1.62,5,4.52,4.52,0,0,1-3.41,2,3.58,3.58,0,0,1-3-1.69q-1.36-1.84-1.36-7.74t1.55-7.45A4,4,0,0,1,159,19.76a9.06,9.06,0,0,1,2.37-.24A3.41,3.41,0,0,1,164,20.85a5.53,5.53,0,0,1,1.14,3.7Z"/><path class="cls-2" d="M288.64,28q-.68,0-.73.29,0,9.44-4.55,9.44a2.67,2.67,0,0,1-2.37-1.4,8,8,0,0,1-.87-4.16V18.31a2.8,2.8,0,0,0-2.06-.68,2.09,2.09,0,0,0-2,1.4q-1.4-1.4-4.74-1.4a9.41,9.41,0,0,0-7,2.66c-1.69,1.71-2.56,4.34-2.63,7.88a.25.25,0,0,0-.11.16q0,5.13-1.31,7.28t-3,2.15a2.85,2.85,0,0,1-2.59-1.4,8,8,0,0,1-.87-4.16V25.33a8,8,0,0,0-1.86-5.71,6.54,6.54,0,0,0-5-2,6.85,6.85,0,0,0-6.44,3.63q0-3.63-2.52-3.63a2.13,2.13,0,0,0-1.84.68v9.87a.25.25,0,0,0-.1.15q0,9.44-4.55,9.44a2.67,2.67,0,0,1-2.37-1.4,8,8,0,0,1-.87-4.16V18.31a2.8,2.8,0,0,0-2.06-.68,2.09,2.09,0,0,0-2,1.4q-1.4-1.4-4.74-1.4a9.41,9.41,0,0,0-7,2.66c-1.7,1.71-2.57,4.35-2.63,7.89a.31.31,0,0,0-.11.14q0,5-1.6,7.21t-3.44,2.23a3.45,3.45,0,0,1-2.9-1.4,6.82,6.82,0,0,1-1.06-4.16V18.31a2.42,2.42,0,0,0-1.79-.68,2.45,2.45,0,0,0-1.84.75,3,3,0,0,0-.73,2.2V30.75a10.09,10.09,0,0,0,1.91,6.58q1.91,2.32,5.83,2.32A6.25,6.25,0,0,0,209.27,37a9.56,9.56,0,0,0,1.38-2.53q1.83,5.19,7.62,5.19a6,6,0,0,0,3.63-1.16,7.9,7.9,0,0,0,2.52-3.15q1.6,4.31,6.49,4.31a5.75,5.75,0,0,0,5-2.47c.1-.14.17-.31.27-.46a3,3,0,0,0,.72,2.18,2.57,2.57,0,0,0,1.94.75,1.94,1.94,0,0,0,1.69-.68V30.7q0-6.15,1.65-8.76a4.86,4.86,0,0,1,4.21-2.61q2.9,0,2.9,5.76v5.66a10.48,10.48,0,0,0,1.81,6.58,6.21,6.21,0,0,0,5.2,2.32,5.94,5.94,0,0,0,5.15-2.47,8.71,8.71,0,0,0,1.19-2.52q1.87,5,7.54,5a6,6,0,0,0,3.63-1.16,7.9,7.9,0,0,0,2.52-3.15q1.6,4.31,6.49,4.31a5.75,5.75,0,0,0,5-2.47,11.08,11.08,0,0,0,1.77-6.58Q289.51,28,288.64,28Zm-64.8,3.19a6.58,6.58,0,0,1-1.72,4.72A4.7,4.7,0,0,1,219,37.76a4.27,4.27,0,0,1-2.32-.56,5,5,0,0,1-1.55-2.69,20.49,20.49,0,0,1-.68-6q0-5.81,1.6-7.55a3.75,3.75,0,0,1,1.65-1.21,7.64,7.64,0,0,1,2.35-.29,3.45,3.45,0,0,1,2.66,1.4,5.51,5.51,0,0,1,1.19,3.68Zm51.88,0A6.58,6.58,0,0,1,274,35.95a4.7,4.7,0,0,1-3.17,1.81,4.27,4.27,0,0,1-2.32-.56A5,5,0,0,1,267,34.52a20.49,20.49,0,0,1-.68-6q0-5.81,1.6-7.55a3.75,3.75,0,0,1,1.65-1.21,7.64,7.64,0,0,1,2.35-.29,3.45,3.45,0,0,1,2.66,1.4,5.51,5.51,0,0,1,1.19,3.68Z"/><path class="cls-2" d="M22.6,5.27A22.11,22.11,0,1,0,44.72,27.39,22.11,22.11,0,0,0,22.6,5.27Zm9.47,33a.36.36,0,0,1-.36.36H25.65a.36.36,0,0,1-.36-.36c0-.16,0-10.35,0-10.35a2.08,2.08,0,0,0-4.16,0V38.24a.36.36,0,0,1-.36.36H14.7a.36.36,0,0,1-.36-.36V23.89a.36.36,0,0,0-.36-.36H12a.36.36,0,0,1-.36-.36c0-.16,0-1,0-1.27a.36.36,0,0,1,.25-.34h0c.11,0,7-1.64,7.19-1.68h.08a.36.36,0,0,1,.36.36v1.55h0a.18.18,0,0,0,.18.18.18.18,0,0,0,.12,0A7.19,7.19,0,0,1,32.07,27S32.07,38.24,32.07,38.24Z"/><path class="cls-1" d="M26.65,12.46a1.68,1.68,0,0,0-2-.41h0l0,0h0c-1.88.94-3.25,3.79-3.49,4.73h0a.43.43,0,0,0,.5.53c1-.12,3.93-1.09,5.12-2.8A1.68,1.68,0,0,0,26.65,12.46Z"/></svg>