<svg id="Capa_1" data-name="Capa 1" xmlns="http://www.w3.org/2000/svg" viewBox="0 0 263 263"><defs><style>.cls-1{fill:#080c15;}</style></defs><title>noradriana-web-iconos-</title><path class="cls-1" d="M197.26,65.74a89.11,89.11,0,0,0-63.55-26.16h-1.17a94.58,94.58,0,0,0-92.95,92.95,89.31,89.31,0,0,0,89.7,90.87h1.17a93.53,93.53,0,0,0,65.26-27.69C232,159.46,232.67,101.15,197.26,65.74Zm-6.83,124.68a86.08,86.08,0,0,1-60.06,25.5,81.84,81.84,0,0,1-83.29-83.29,87,87,0,0,1,86.61-85.53A82,82,0,0,1,192,71C224.46,103.53,223.77,157.08,190.42,190.43Z"/><path class="cls-1" d="M183,127.12l-47.66.59L135.88,80a3.74,3.74,0,0,0-7.48-.09l-.59,47.85L80,128.39a3.74,3.74,0,0,0,0,7.48h0l47.66-.59L127.12,183a3.74,3.74,0,0,0,3.7,3.79h0a3.74,3.74,0,0,0,3.74-3.7l.59-47.85,47.85-.59a3.74,3.74,0,1,0-.09-7.48Z"/></svg>