<svg id="Capa_1" data-name="Capa 1" xmlns="http://www.w3.org/2000/svg" viewBox="0 0 263 263"><defs><style>.cls-1{fill:#080c15;}.cls-2{fill:#ab0420;}</style></defs><title>noradriana-web-iconos</title><path class="cls-1" d="M129.29,223.41a89.31,89.31,0,0,1-89.7-90.87,94.58,94.58,0,0,1,92.95-92.95h1.17a89.11,89.11,0,0,1,63.55,26.16c35.41,35.41,34.72,93.72-1.54,130h0a93.53,93.53,0,0,1-65.26,27.69Zm4.4-176.3a87,87,0,0,0-86.61,85.53,81.84,81.84,0,0,0,83.29,83.29,86.08,86.08,0,0,0,60.06-25.5c33.34-33.34,34-86.9,1.54-119.39A82,82,0,0,0,133.69,47.11Zm59.38,146h0Z"/><path class="cls-2" d="M183,127.42h0L135,128l.59-48a3.45,3.45,0,1,0-6.89-.08l-.6,48.14L80,128.69a3.45,3.45,0,0,0,0,6.89h0l48-.59-.59,48a3.45,3.45,0,0,0,3.4,3.49h0a3.45,3.45,0,0,0,3.45-3.4l.6-48.14,48.14-.59a3.45,3.45,0,0,0,0-6.89Z"/></svg>