<svg id="Capa_1" data-name="Capa 1" xmlns="http://www.w3.org/2000/svg" viewBox="0 0 263 263"><defs><style>.cls-1{fill:#080c15;}.cls-2{fill:#ab0420;}</style></defs><title>noradriana-web-iconos-</title><path class="cls-1" d="M29.28,155.25a3.28,3.28,0,0,1-3.09-4.38l9.53-26.93A65.61,65.61,0,1,1,157.25,89.63a3.28,3.28,0,0,1-6.56,0,59.06,59.06,0,1,0-108.6,32.12,3.28,3.28,0,0,1,.34,2.89l-7.77,22,21.94-7.78a3.28,3.28,0,0,1,2.89.34,58.62,58.62,0,0,0,32.12,9.54,3.28,3.28,0,0,1,0,6.56,65.17,65.17,0,0,1-34.32-9.73l-26.92,9.54A3.28,3.28,0,0,1,29.28,155.25Z"/><path class="cls-2" d="M108.67,112.66l-4.68-.94c6.37-4.67,10.59-12.83,10.59-22.1,0-14.47-10.3-26.25-23-26.25s-23,11.78-23,26.25,10.3,26.25,23,26.25c.43,0,.85,0,1.28,0a3.25,3.25,0,0,0,1.36.64l13.13,2.63a3.33,3.33,0,0,0,.65.06,3.28,3.28,0,0,0,.64-6.5Zm-33.46-23c0-10.86,7.36-19.69,16.41-19.69S108,78.77,108,89.63s-7.36,19.69-16.41,19.69S75.22,100.48,75.22,89.63Z"/><path class="cls-1" d="M232.72,234a3.28,3.28,0,0,1-1.1-.19l-26.92-9.54a65.71,65.71,0,1,1,21.57-21.57l9.54,26.92a3.28,3.28,0,0,1-3.09,4.38ZM170.38,109.31A59.06,59.06,0,1,0,202.5,217.9a3.28,3.28,0,0,1,2.89-.34l21.94,7.78-7.77-21.94a3.28,3.28,0,0,1,.35-2.89,59,59,0,0,0-49.52-91.18Z"/><path class="cls-2" d="M189.87,190.24,173.47,144.3c0-.05,0-.09-.07-.14a3.27,3.27,0,0,0-.15-.31c0-.09-.1-.18-.16-.27l-.19-.25-.21-.24-.23-.21-.26-.19-.26-.16-.31-.15-.14-.07-.14,0-.34-.08-.3,0h-.65l-.3,0-.34.08-.14,0-.14.07-.31.15-.27.16-.26.19-.23.21-.21.24-.19.25c-.06.09-.11.18-.16.27a3.26,3.26,0,0,0-.15.31s0,.09-.07.14l-16.41,45.94a3.28,3.28,0,1,0,6.18,2.21l5.08-14.23h16.47l5.08,14.23a3.28,3.28,0,1,0,6.18-2.21Zm-25.39-18.58,5.89-16.49,5.89,16.49Z"/></svg>