<svg id="Capa_1" data-name="Capa 1" xmlns="http://www.w3.org/2000/svg" viewBox="0 0 263 263"><defs><style>.cls-1{fill:#080c15;}.cls-2{fill:#ab0420;}</style></defs><title>noradriana-web-iconos-</title><path class="cls-1" d="M160.51,216.42A5.48,5.48,0,0,1,159,212.6V201.93h2.19a3.74,3.74,0,0,0,0-7.48H48.46a5.26,5.26,0,0,1-5.16-5.35V177.68h85.23a3.74,3.74,0,0,0,0-7.48H43.3V70.88a5.26,5.26,0,0,1,5.16-5.35,3.74,3.74,0,0,0,0-7.48A12.75,12.75,0,0,0,35.82,70.88V189.09a12.75,12.75,0,0,0,12.64,12.84h103V212.6a12.85,12.85,0,0,0,3.67,9l.07.07H107.77l.07-.07a12.86,12.86,0,0,0,3.67-9v-2.3a3.74,3.74,0,0,0-7.48,0v2.3a5.48,5.48,0,0,1-1.54,3.81l-6.29,6.43a3.74,3.74,0,0,0,2.67,6.36h65.25a3.74,3.74,0,0,0,2.67-6.36Z"/><path class="cls-1" d="M214.54,58a3.74,3.74,0,1,0,0,7.48,5.26,5.26,0,0,1,5.16,5.35v99.31h-17a3.74,3.74,0,0,0,0,7.48h17v11.41a5.26,5.26,0,0,1-5.16,5.35,3.74,3.74,0,0,0,0,7.48,12.75,12.75,0,0,0,12.64-12.84V70.88A12.75,12.75,0,0,0,214.54,58Z"/><path class="cls-1" d="M156.87,137.09a3.74,3.74,0,0,0-1.08-.9l-25.44-14a3.74,3.74,0,0,0-5.4,4.33l7.65,26.15a3.74,3.74,0,0,0,.66,1.27l55,69.46a15,15,0,0,0,10.4,5.76,15.3,15.3,0,0,0,1.53.08,14.93,14.93,0,0,0,9.73-3.61,15.68,15.68,0,0,0,1.93-21.73ZM205,219.9a7.5,7.5,0,0,1-5.66,1.79,7.62,7.62,0,0,1-5.27-2.94l-5.46-6.89,5.51-4.61a3.74,3.74,0,1,0-4.8-5.74L184,206l-44.42-56.13-4.9-16.75,16.87,9.3L206,208.61A8.15,8.15,0,0,1,205,219.9Z"/><path class="cls-2" d="M199.71,34.09H63.29a6.45,6.45,0,0,0-6.41,6.48V155.75a3.45,3.45,0,1,0,6.89,0V71.3H199.23v84.45a3.45,3.45,0,1,0,6.89,0V40.57A6.45,6.45,0,0,0,199.71,34.09ZM63.77,64.4V41H199.23V64.4Z"/><path class="cls-2" d="M76.5,49.25h-2a3.45,3.45,0,0,0,0,6.89h2a3.45,3.45,0,0,0,0-6.89Z"/><path class="cls-2" d="M88.13,49.25h-2a3.45,3.45,0,1,0,0,6.89h2a3.45,3.45,0,1,0,0-6.89Z"/><path class="cls-2" d="M99.77,49.25h-2a3.45,3.45,0,1,0,0,6.89h2a3.45,3.45,0,0,0,0-6.89Z"/><path class="cls-2" d="M176,82.59H87A3.45,3.45,0,0,0,83.57,86v21.22A3.45,3.45,0,0,0,87,110.7h89a3.45,3.45,0,0,0,3.45-3.45V86A3.45,3.45,0,0,0,176,82.59Zm-3.45,21.22H90.46V89.48h82.08Z"/><path class="cls-2" d="M86.44,122H84a3.45,3.45,0,0,0,0,6.89h2.4a3.45,3.45,0,0,0,0-6.89Z"/><path class="cls-2" d="M86.44,134.11H84A3.45,3.45,0,1,0,84,141h2.4a3.45,3.45,0,1,0,0-6.89Z"/><path class="cls-2" d="M86.44,146.24H84a3.45,3.45,0,1,0,0,6.89h2.4a3.45,3.45,0,1,0,0-6.89Z"/><path class="cls-2" d="M98.31,146.24h-2.4a3.45,3.45,0,1,0,0,6.89h2.4a3.45,3.45,0,1,0,0-6.89Z"/><path class="cls-2" d="M110.17,146.24h-2.4a3.45,3.45,0,1,0,0,6.89h2.4a3.45,3.45,0,1,0,0-6.89Z"/><path class="cls-2" d="M110.17,134.11h-2.4a3.45,3.45,0,1,0,0,6.89h2.4a3.45,3.45,0,0,0,0-6.89Z"/><path class="cls-2" d="M98.31,122h-2.4a3.45,3.45,0,0,0,0,6.89h2.4a3.45,3.45,0,0,0,0-6.89Z"/><path class="cls-2" d="M110.17,122h-2.4a3.45,3.45,0,0,0,0,6.89h2.4a3.45,3.45,0,0,0,0-6.89Z"/></svg>